<svg width="58" height="54" viewBox="0 0 58 54" fill="none" xmlns="http://www.w3.org/2000/svg">
<path d="M18.3333 31H39.6667M18.3333 17.6667H29" stroke="#363636" stroke-width="3" stroke-linecap="round" stroke-linejoin="round"/>
<path d="M13.2635 45.668C9.79653 45.3269 7.19934 44.2856 5.45752 42.5438C2.33333 39.4196 2.33333 34.3913 2.33333 24.3346V23.0013C2.33333 12.9447 2.33333 7.91636 5.45752 4.79216C8.58172 1.66797 13.61 1.66797 23.6667 1.66797H34.3333C44.39 1.66797 49.4183 1.66797 52.5425 4.79216C55.6667 7.91636 55.6667 12.9447 55.6667 23.0013V24.3346C55.6667 34.3913 55.6667 39.4196 52.5425 42.5438C49.4183 45.668 44.39 45.668 34.3333 45.668C32.8388 45.7013 31.6484 45.815 30.4789 46.0814C27.2833 46.8171 24.3241 48.4523 21.3996 49.8783C17.2328 51.9101 15.1493 52.9261 13.8418 51.9749C11.3405 50.112 13.7854 44.3396 14.3333 41.668" stroke="#363636" stroke-width="3" stroke-linecap="round"/>
</svg>
