<svg width="58" height="58" viewBox="0 0 58 58" fill="none" xmlns="http://www.w3.org/2000/svg">
<path d="M34.3333 44.9987C34.3333 44.9987 37 44.9987 39.6666 50.332C39.6666 50.332 48.1372 36.9987 55.6666 34.332" stroke="#363636" stroke-width="3" stroke-linecap="round" stroke-linejoin="round"/>
<path d="M31.6666 55.6654H14.5756C10.4546 55.6654 7.17681 53.6601 4.23374 50.8562C-1.79105 45.1163 8.10079 40.5294 11.8735 38.2829C20.3491 33.2362 31.0078 33.0244 39.6666 37.6473" stroke="#363636" stroke-width="3" stroke-linecap="round" stroke-linejoin="round"/>
<path d="M41 14.332C41 20.9594 35.6274 26.332 29 26.332C22.3726 26.332 17 20.9594 17 14.332C17 7.70461 22.3726 2.33203 29 2.33203C35.6274 2.33203 41 7.70461 41 14.332Z" stroke="#363636" stroke-width="3"/>
</svg>
