<svg width="58" height="58" viewBox="0 0 58 58" fill="none" xmlns="http://www.w3.org/2000/svg">
<path d="M31.6667 55.6654H14.5756C10.4546 55.6654 7.17682 53.6601 4.23376 50.8562C-1.79103 45.1163 8.10081 40.5294 11.8735 38.2829C18.2714 34.4733 25.9133 33.4188 33 35.1192" stroke="#363636" stroke-width="3" stroke-linecap="round" stroke-linejoin="round"/>
<path d="M41 14.332C41 20.9594 35.6274 26.332 29 26.332C22.3726 26.332 17 20.9594 17 14.332C17 7.70461 22.3726 2.33203 29 2.33203C35.6274 2.33203 41 7.70461 41 14.332Z" stroke="#363636" stroke-width="3"/>
<path d="M39.6667 55.6641L47.6667 47.6641M47.6667 47.6641L55.6667 39.6641M47.6667 47.6641L39.6667 39.6641M47.6667 47.6641L55.6667 55.6641" stroke="#363636" stroke-width="3" stroke-linecap="round"/>
</svg>
