<svg width="64" height="64" viewBox="0 0 64 64" fill="none" xmlns="http://www.w3.org/2000/svg">
<path d="M32 60.6667C18.0267 60.6667 6.66666 49.3067 6.66666 35.3333C6.66666 21.36 18.0267 10 32 10C45.9733 10 57.3333 21.36 57.3333 35.3333C57.3333 49.3067 45.9733 60.6667 32 60.6667ZM32 14C20.24 14 10.6667 23.5733 10.6667 35.3333C10.6667 47.0933 20.24 56.6667 32 56.6667C43.76 56.6667 53.3333 47.0933 53.3333 35.3333C53.3333 23.5733 43.76 14 32 14Z" fill="#363636"/>
<path d="M32 36.6654C30.9067 36.6654 30 35.7587 30 34.6654V21.332C30 20.2387 30.9067 19.332 32 19.332C33.0933 19.332 34 20.2387 34 21.332V34.6654C34 35.7587 33.0933 36.6654 32 36.6654Z" fill="#363636"/>
<path d="M40 7.33203H24C22.9067 7.33203 22 6.42536 22 5.33203C22 4.2387 22.9067 3.33203 24 3.33203H40C41.0933 3.33203 42 4.2387 42 5.33203C42 6.42536 41.0933 7.33203 40 7.33203Z" fill="#363636"/>
</svg>
