<svg width="64" height="65" viewBox="0 0 64 65" fill="none" xmlns="http://www.w3.org/2000/svg">
<path d="M42.16 53.9162C41.4667 53.9162 40.7467 53.8896 39.9733 53.8096C38.5867 53.7029 37.0133 53.4362 35.3867 53.0362L30.9067 51.9696C18.6133 49.0629 14.5867 42.5562 17.4667 30.2896L20.08 19.1162C20.6667 16.5829 21.36 14.5296 22.2133 12.8229C26.8 3.35624 35.5733 4.20957 41.8133 5.67624L46.2667 6.71624C52.5067 8.1829 56.4533 10.5029 58.6667 14.0496C60.8533 17.5962 61.2 22.1562 59.7333 28.3962L57.12 39.5429C54.8267 49.3029 50.0533 53.9162 42.16 53.9162ZM34.9867 8.76957C30.5333 8.76957 27.7067 10.6096 25.8133 14.5562C25.12 15.9962 24.5067 17.7829 23.9733 20.0229L21.36 31.1962C18.9867 41.2762 21.7333 45.6762 31.8133 48.0762L36.2933 49.1429C37.7333 49.4896 39.0933 49.7029 40.32 49.8096C47.5733 50.5296 51.1733 47.3562 53.2 38.6362L55.8133 27.4896C57.0133 22.3429 56.8533 18.7429 55.2533 16.1562C53.6533 13.5696 50.5067 11.8096 45.3333 10.6096L40.88 9.56957C38.6667 9.03624 36.6933 8.76957 34.9867 8.76957Z" fill="#292929"/>
<path d="M22.2133 59.4341C15.36 59.4341 10.9867 55.3274 8.18666 46.6607L4.77333 36.1274C0.986662 24.3941 4.37333 17.7807 16.0533 13.9941L20.2667 12.6341C21.6533 12.2074 22.6933 11.9141 23.6267 11.7541C24.4 11.5941 25.1467 11.8874 25.6 12.5007C26.0533 13.1141 26.1333 13.9141 25.8133 14.6074C25.12 16.0207 24.5067 17.8074 24 20.0474L21.3867 31.2207C19.0133 41.3007 21.76 45.7007 31.84 48.1007L36.32 49.1674C37.76 49.5141 39.12 49.7274 40.3467 49.8341C41.2 49.9141 41.8933 50.5007 42.1333 51.3274C42.3467 52.1541 42.0267 53.0074 41.3333 53.4874C39.5733 54.6874 37.36 55.7007 34.56 56.6074L30.3467 57.994C27.28 58.9541 24.6133 59.4341 22.2133 59.4341ZM20.7467 16.6874L17.3067 17.8074C7.78666 20.8741 5.52 25.3541 8.58666 34.9007L12 45.4341C15.0933 54.9541 19.5733 57.2474 29.0933 54.1807L33.3067 52.7941C33.4667 52.7407 33.6 52.6874 33.76 52.6341L30.9333 51.9674C18.64 49.0607 14.6133 42.5541 17.4933 30.2874L20.1067 19.1141C20.2933 18.2607 20.5067 17.4341 20.7467 16.6874Z" fill="#292929"/>
<path d="M46.64 28.1276C46.48 28.1276 46.32 28.101 46.1333 28.0743L33.2 24.7943C32.1333 24.5276 31.4933 23.4343 31.76 22.3676C32.0267 21.301 33.12 20.661 34.1867 20.9276L47.12 24.2076C48.1867 24.4743 48.8267 25.5676 48.56 26.6343C48.3467 27.5143 47.52 28.1276 46.64 28.1276Z" fill="#292929"/>
<path d="M38.8267 37.1413C38.6667 37.1413 38.5067 37.1146 38.32 37.0879L30.56 35.1146C29.4933 34.8479 28.8533 33.7546 29.12 32.6879C29.3867 31.6213 30.48 30.9813 31.5467 31.2479L39.3067 33.2213C40.3733 33.4879 41.0133 34.5813 40.7467 35.6479C40.5333 36.5546 39.7333 37.1413 38.8267 37.1413Z" fill="#292929"/>
</svg>
