<svg width="12" height="16" viewBox="0 0 12 16" fill="none" xmlns="http://www.w3.org/2000/svg">
<path d="M7.66667 6.00065C7.66667 6.92113 6.92048 7.66732 6 7.66732C5.07953 7.66732 4.33334 6.92113 4.33334 6.00065C4.33334 5.08018 5.07953 4.33398 6 4.33398C6.92048 4.33398 7.66667 5.08018 7.66667 6.00065Z" stroke="#363636"/>
<path d="M6.83827 11.663C6.61342 11.8796 6.31288 12.0007 6.0001 12.0007C5.68733 12.0007 5.38679 11.8796 5.16194 11.663C3.10287 9.66784 0.343462 7.43901 1.68914 4.20314C2.41674 2.45353 4.1633 1.33398 6.0001 1.33398C7.83691 1.33398 9.58347 2.45353 10.3111 4.20314C11.655 7.43493 8.90242 9.67472 6.83827 11.663Z" stroke="#363636"/>
<path d="M10 13.334C10 14.0704 8.20914 14.6673 6 14.6673C3.79086 14.6673 2 14.0704 2 13.334" stroke="#363636" stroke-linecap="round"/>
</svg>
