<svg width="20" height="20" viewBox="0 0 20 20" fill="none" xmlns="http://www.w3.org/2000/svg">
<path d="M6.66668 11.25H13.3333M6.66668 7.08333H10" stroke="#363636" stroke-width="1.5" stroke-linecap="round" stroke-linejoin="round"/>
<path d="M5.08235 15.834C3.99892 15.7274 3.1873 15.402 2.64298 14.8577C1.66667 13.8814 1.66667 12.31 1.66667 9.16732V8.75065C1.66667 5.60795 1.66667 4.03661 2.64298 3.0603C3.61929 2.08398 5.19064 2.08398 8.33334 2.08398H11.6667C14.8094 2.08398 16.3807 2.08398 17.357 3.0603C18.3333 4.03661 18.3333 5.60795 18.3333 8.75065V9.16732C18.3333 12.31 18.3333 13.8814 17.357 14.8577C16.3807 15.834 14.8094 15.834 11.6667 15.834C11.1996 15.8444 10.8276 15.8799 10.4622 15.9632C9.46353 16.1931 8.53877 16.7041 7.62489 17.1497C6.32275 17.7847 5.67167 18.1021 5.26308 17.8049C4.48142 17.2228 5.24545 15.4189 5.41667 14.584" stroke="#363636" stroke-width="1.5" stroke-linecap="round"/>
</svg>
