<svg width="20" height="20" viewBox="0 0 20 20" fill="none" xmlns="http://www.w3.org/2000/svg">
<g clip-path="url(#clip0_298_174)">
<path d="M10.8333 18.3327H5.49238C4.20457 18.3327 3.18025 17.706 2.26054 16.8298C0.377794 15.0361 3.46899 13.6027 4.64797 12.9007C6.64731 11.7102 9.03541 11.3806 11.25 11.912" stroke="#363636" stroke-width="1.5" stroke-linecap="round" stroke-linejoin="round"/>
<path d="M13.75 5.41602C13.75 7.48708 12.0711 9.16602 10 9.16602C7.92893 9.16602 6.25 7.48708 6.25 5.41602C6.25 3.34495 7.92893 1.66602 10 1.66602C12.0711 1.66602 13.75 3.34495 13.75 5.41602Z" stroke="#363636" stroke-width="1.5"/>
<path d="M13.3333 18.332L15.8333 15.832M15.8333 15.832L18.3333 13.332M15.8333 15.832L13.3333 13.332M15.8333 15.832L18.3333 18.332" stroke="#363636" stroke-width="1.5" stroke-linecap="round"/>
</g>
<defs>
<clipPath id="clip0_298_174">
<rect width="20" height="20" fill="white"/>
</clipPath>
</defs>
</svg>
