<svg width="20" height="20" viewBox="0 0 20 20" fill="none" xmlns="http://www.w3.org/2000/svg">
<path d="M11.6667 14.9993C11.6667 14.9993 12.5 14.9993 13.3333 16.666C13.3333 16.666 15.9804 12.4993 18.3333 11.666" stroke="#363636" stroke-width="1.5" stroke-linecap="round" stroke-linejoin="round"/>
<path d="M10.8333 18.3327H5.49238C4.20457 18.3327 3.18025 17.706 2.26054 16.8298C0.377794 15.0361 3.46899 13.6027 4.64797 12.9007C7.29658 11.3236 10.6274 11.2574 13.3333 12.702" stroke="#363636" stroke-width="1.5" stroke-linecap="round" stroke-linejoin="round"/>
<path d="M13.75 5.41602C13.75 7.48708 12.0711 9.16602 10 9.16602C7.92893 9.16602 6.25 7.48708 6.25 5.41602C6.25 3.34495 7.92893 1.66602 10 1.66602C12.0711 1.66602 13.75 3.34495 13.75 5.41602Z" stroke="#363636" stroke-width="1.5"/>
</svg>
