<svg width="18" height="20" viewBox="0 0 18 20" fill="none" xmlns="http://www.w3.org/2000/svg">
<path d="M4.48131 12.9007C3.30234 13.6027 0.211137 15.0361 2.09388 16.8298C3.01359 17.706 4.03791 18.3327 5.32572 18.3327H12.6743C13.9621 18.3327 14.9864 17.706 15.9061 16.8298C17.7889 15.0361 14.6977 13.6027 13.5187 12.9007C10.754 11.2545 7.24599 11.2545 4.48131 12.9007Z" stroke="#363636" stroke-width="1.5" stroke-linecap="round" stroke-linejoin="round"/>
<path d="M12.75 5.41602C12.75 7.48708 11.0711 9.16602 9 9.16602C6.92893 9.16602 5.25 7.48708 5.25 5.41602C5.25 3.34495 6.92893 1.66602 9 1.66602C11.0711 1.66602 12.75 3.34495 12.75 5.41602Z" stroke="#363636" stroke-width="1.5"/>
</svg>
