<svg width="64" height="64" viewBox="0 0 64 64" fill="none" xmlns="http://www.w3.org/2000/svg">
<path d="M7.00024 21.8327C7.27774 16.2334 8.10789 12.7424 10.5913 10.259C13.0747 7.77561 16.5657 6.94547 22.165 6.66797M57.6669 21.8327C57.3894 16.2334 56.5593 12.7424 54.0759 10.259C51.5925 7.77561 48.1014 6.94547 42.5022 6.66797M42.5022 57.3346C48.1014 57.0571 51.5925 56.227 54.0759 53.7436C56.5593 51.2602 57.3894 47.7692 57.6669 42.1699M22.1649 57.3346C16.5657 57.0571 13.0747 56.227 10.5913 53.7436C8.10789 51.2602 7.27774 47.7692 7.00024 42.1699" stroke="#363636" stroke-width="3" stroke-linecap="round" stroke-linejoin="round"/>
<path d="M12.0002 32H52.0002" stroke="#363636" stroke-width="3" stroke-linecap="round"/>
</svg>
